<svg xmlns="http://www.w3.org/2000/svg" viewBox="0 0 180 180" width="180" height="180" role="img" aria-labelledby="att">
  <title id="att">JuiceMount</title>
  <!-- Source for site/apple-touch-icon.png (render: swift scripts/svg2png.swift
       site/assets/apple-touch-icon.svg site/apple-touch-icon.png 180).
       Full-bleed Rind Cream square; iOS applies its own corner mask, so no
       baked-in rounding. The color mark sits centered at 70% (126 px). -->
  <defs>
    <style>
      .at-1 { fill: #aacd58; }
      .at-2 { fill: #abce5a; }
      .at-3 { fill: #aace5a; }
      .at-4, .at-5 { fill: #a9cd58; }
      .at-6 { stroke-width: 15.94px; }
      .at-6, .at-7, .at-8 { fill: none; }
      .at-6, .at-7, .at-8, .at-9, .at-5 { stroke: #1b102a; stroke-miterlimit: 10; }
      .at-7, .at-9 { stroke-width: 18.27px; }
      .at-8 { stroke-width: 20.05px; }
      .at-10 { fill: #393839; }
      .at-9 { fill: url(#at-arm); }
      .at-11 { fill: #aace59; }
      .at-5 { stroke-width: 22.71px; }
      .at-12 { fill: #fafde8; }
    </style>
    <linearGradient id="at-arm" x1="47.8" y1="711.87" x2="605.26" y2="711.87" gradientUnits="userSpaceOnUse">
      <stop offset="0" stop-color="#ccc"/>
      <stop offset="1" stop-color="gray"/>
    </linearGradient>
  </defs>
  <rect width="180" height="180" fill="#FAFDE8"/>
  <!-- the citrus mark, inlined from logos/color.svg -->
  <g transform="translate(27,27) scale(0.126)">
    <circle class="at-10" cx="495.56" cy="506.15" r="238.15"/>
    <path class="at-5" d="M765.88,905.66c-117.74,78.1-262.97,99.6-397.95,60.35-104.84-30.48-196.23-96.14-260.02-184.98C24.1,664.29-1.98,517.61,34.31,378.58c15.9-60.91,43.49-116.72,81.77-167.14,62.95-82.9,150.15-143.26,249.45-172.95C494.61-.11,634.16,18,749.57,87.76c68.45,41.37,126.32,99.27,167.67,167.76,22.28,36.91,38.57,75.62,50.15,117.16,22.11,79.32,23.23,160.68,4.55,240.98-27.93,120.06-102.37,223.22-206.06,292Z"/>
    <path class="at-12" d="M580.62,935.71c-56.96,10.61-114.6,9.85-169.63-2.2-127.58-27.93-237.01-111.96-298.86-226.6-62.25-115.38-68.7-252.46-17.53-373.16,43.11-101.71,122.84-184.91,223.36-232,101.2-47.4,217.96-53.75,324.4-17.31,129.85,44.44,233.25,148.02,277.42,277.99,36.86,108.49,29.51,226.27-20.23,328.48-22.15,45.52-51.69,85.72-87.33,121.41-63.23,63.32-142.2,106.74-231.59,123.39Z"/>
    <path class="at-11" d="M443.23,465.82l-179.78-74.29-68.51-28.3c-13.18-5.44-25.47-12.27-33.21-24-9.25-14.02-9.77-29.61-.33-43.98,34.64-52.78,79.42-97.68,131.71-132.23,14.72-9.73,33.51-7.94,47.5,2.76,8.57,6.56,14.52,14.72,18.61,24.53l63.55,152.22,43.22,103.07c2.9,6.92,3.07,13.97-3.39,18.43-5.47,3.77-12.03,4.82-19.35,1.8Z"/>
    <path class="at-11" d="M592.51,889.41c-62.07,12.13-123.51,12.39-184.14-.14-17.66-3.65-30.38-18.37-31.16-36.53-.38-8.98.23-18.25,3.99-27.4l106.08-258.61c2.49-6.08,8.7-8.67,12.56-9.55,5.63-1.29,13.16.71,15.86,7.21l87.55,210.55,20.6,51.78c8.91,22.39,2.04,56.16-31.34,62.68Z"/>
    <path class="at-1" d="M816.7,357.98l-102.26,43.53-154.12,64.35c-5.82,2.43-12.61,3.91-16.81.44-3.42-2.83-10.08-9.97-7.36-16.62l105.95-258.36c3.89-9.48,9.95-17.09,16.31-23.64,13.69-14.11,34.53-16.38,51.13-5.52,34.59,22.62,65.08,48.9,92.07,79.88,13.79,15.83,25.54,32.29,37.71,49.43,7.42,10.46,10.11,22.61,5.97,35.33-4.43,13.62-14.31,25.1-28.59,31.18Z"/>
    <path class="at-4" d="M488.9,441.63l-108.94-263.24c-9.14-22.08-1.99-57,28.78-63.3,61.94-12.67,125.18-13.75,186.7.06,20.06,4.5,32.57,22.3,30.82,42.62-.95,11.07-3.44,20.63-7.91,31.43l-103.53,250.13c-2.26,5.46-8.14,6.64-11.46,7.54-3.64.99-12.07.53-14.46-5.25Z"/>
    <path class="at-4" d="M341.35,839.92c-14.42,11.53-32.15,11.93-47.4,1.97-51.72-33.78-93.62-77.14-128.52-127.65-8.27-11.97-12.04-24.23-6.57-38.62,4.99-13.13,14.75-24.4,28.45-30.14l257.02-107.7c5.64-2.36,12.5-3.06,17.12,1.37,3.19,3.07,8.14,9.59,5.38,16.32l-75.68,184.72-32.17,76.25c-3.9,9.25-10.42,17.71-17.63,23.49Z"/>
    <path class="at-3" d="M815,619.02l-248.35-102.21c-5.97-2.46-8.28-7.91-9.59-12.12-1.27-4.09-.91-12.94,4.26-15.06l112.66-46.29,144.76-60.54c10.7-4.48,21.53-7.24,32.52-5.94,22.3,2.64,35.38,17.69,39.05,38.96,10.34,59.99,11.4,120.14-1.77,179.62-4.14,18.69-17.63,30.92-36.74,31.69-12.78.52-23.8-2.77-36.8-8.12Z"/>
    <path class="at-2" d="M712.34,839.55c-16.85,11.61-38.06,9.88-53.02-4.16-6.78-6.36-11.72-13.92-15.39-22.65l-32.7-77.54-72.76-175c-2.45-5.89-4.4-12-.43-17.05,2.71-3.45,9.2-9.63,15.99-6.83l255.45,105c12.09,4.97,22.04,11.25,29.78,20.36,12.21,14.37,12.18,32.45,2.36,47.89-32.75,51.54-79.09,95.38-129.28,129.96Z"/>
    <path class="at-4" d="M177.38,623.52c-11.26,4.64-22.83,4.87-33.83,1.75-18.3-5.19-27.26-19.19-30.33-37.18-10.15-59.56-11.34-119.26,1.15-178.15,4.14-19.52,18.33-32.95,38.78-32.86,11.58.05,22.07,2.62,33.34,7.27l250.32,103.31c7.4,3.05,10.51,10.33,10.18,15.98-.51,8.86-6.48,11.53-13.64,14.48l-120.8,49.72-135.18,55.69Z"/>
    <path class="at-9" d="M282.55,922.69c53.7-53.7,313.89-400.95,260.18-454.66-53.7-53.7-400.95,206.48-454.66,260.18-53.7,53.7-53.7,140.77,0,194.47,53.7,53.7,140.77,53.7,194.47,0Z"/>
    <circle class="at-8" cx="185.6" cy="821.72" r="77.08"/>
    <circle class="at-7" cx="502.62" cy="505.01" r="7.8"/>
    <path class="at-6" d="M255.39,692.26l156.69-95.68-94.96,156.29s-14.11-26.25-23.85-35.94c-11.43-11.38-37.89-24.67-37.89-24.67Z"/>
  </g>
</svg>
