<?xml version="1.0" encoding="UTF-8"?>
<svg id="Layer_7" data-name="Layer 7" xmlns="http://www.w3.org/2000/svg" viewBox="0 0 1000 1000">
  <defs>
    <style>
      .cls-1 {
        stroke-width: 18.27px;
      }

      .cls-1, .cls-2, .cls-3, .cls-4 {
        fill: none;
        stroke: #fff;
        stroke-miterlimit: 10;
      }

      .cls-2 {
        stroke-width: 15.94px;
      }

      .cls-3 {
        stroke-width: 20.05px;
      }

      .cls-4 {
        stroke-width: 14px;
      }
    </style>
  </defs>
  <path class="cls-4" d="M441.53,464.29l-179.78-74.29-68.51-28.3c-13.18-5.44-25.47-12.27-33.21-24-9.25-14.02-9.77-29.61-.33-43.98,34.64-52.78,79.42-97.68,131.71-132.23,14.72-9.73,33.51-7.94,47.5,2.76,8.57,6.56,14.52,14.72,18.61,24.53l63.55,152.22,43.22,103.07c2.9,6.92,3.07,13.97-3.39,18.43-5.47,3.77-12.03,4.82-19.35,1.8Z"/>
  <path class="cls-4" d="M815,356.46l-102.26,43.53-154.12,64.35c-5.82,2.43-12.61,3.91-16.81.44-3.42-2.83-10.08-9.97-7.36-16.62l105.95-258.36c3.89-9.48,9.95-17.09,16.31-23.64,13.69-14.11,34.53-16.38,51.13-5.52,34.59,22.62,65.08,48.9,92.07,79.88,13.79,15.83,25.54,32.29,37.71,49.43,7.42,10.46,10.11,22.61,5.97,35.33-4.43,13.62-14.31,25.1-28.59,31.18Z"/>
  <path class="cls-4" d="M487.2,440.1l-108.94-263.24c-9.14-22.08-1.99-57,28.78-63.3,61.94-12.67,125.18-13.75,186.7.06,20.06,4.5,32.57,22.3,30.82,42.62-.95,11.07-3.44,20.63-7.91,31.43l-103.53,250.13c-2.26,5.46-8.14,6.64-11.46,7.54-3.64.99-12.07.53-14.46-5.25Z"/>
  <path class="cls-4" d="M813.3,617.5l-248.35-102.21c-5.97-2.46-8.28-7.91-9.59-12.12s-.91-12.94,4.26-15.06l112.66-46.29,144.76-60.54c10.7-4.48,21.53-7.24,32.52-5.94,22.3,2.64,35.38,17.69,39.05,38.96,10.34,59.99,11.4,120.14-1.77,179.62-4.14,18.69-17.63,30.92-36.74,31.69-12.78.52-23.8-2.77-36.8-8.12Z"/>
  <path class="cls-4" d="M710.64,838.02c-16.85,11.61-38.06,9.88-53.02-4.16-6.78-6.36-11.72-13.92-15.39-22.65l-32.7-77.54-72.76-175c-2.45-5.89-4.4-12-.43-17.05,2.71-3.45,9.2-9.63,15.99-6.83l255.45,105c12.09,4.97,22.04,11.25,29.78,20.36,12.21,14.37,12.18,32.45,2.36,47.89-32.75,51.54-79.09,95.38-129.28,129.96Z"/>
  <path class="cls-1" d="M280.85,921.16c53.7-53.7,313.89-400.95,260.18-454.66-53.7-53.7-400.95,206.48-454.66,260.18-53.7,53.7-53.7,140.77,0,194.47,53.7,53.7,140.77,53.7,194.47,0Z"/>
  <path class="cls-4" d="M965.69,371.15c-11.58-41.54-27.87-80.25-50.15-117.16-41.35-68.49-99.22-126.39-167.67-167.76C632.46,16.48,492.91-1.63,363.84,36.96c-99.31,29.7-186.5,90.06-249.45,172.95-38.29,50.42-65.87,106.23-81.77,167.14-31.88,122.11-15.63,250.13,45.59,358.57,2.57-3.07,5.29-6.05,8.18-8.93,53.7-53.7,400.95-313.89,454.66-260.18,53.7,53.7-206.48,400.95-260.18,454.66-2.07,2.07-4.19,4.04-6.35,5.95,29.06,15.49,59.77,28.07,91.73,37.37,134.98,39.25,280.21,17.75,397.95-60.35,103.69-68.78,178.13-171.94,206.06-292,18.68-80.3,17.56-161.66-4.55-240.98Z"/>
  <path class="cls-4" d="M622.15,825.2l-20.6-51.78-81.95-197.08c-27.7,56.31-71.72,124.83-115.05,186.39l-25.06,61.09c-3.75,9.15-4.37,18.42-3.99,27.4.78,18.16,13.5,32.88,31.16,36.53,60.63,12.53,122.07,12.27,184.14.14,33.38-6.53,40.25-40.29,31.34-62.68Z"/>
  <path class="cls-4" d="M141.85,623.74c10.99,3.12,22.57,2.89,33.83-1.75l103.06-42.46c53.42-36.23,109.33-70.76,156.26-93.46l-250.21-103.26c-11.27-4.65-21.75-7.22-33.34-7.27-20.45-.08-34.64,13.35-38.78,32.86-12.49,58.89-11.3,118.6-1.15,178.15,3.07,17.99,12.03,31.99,30.33,37.18Z"/>
  <circle class="cls-3" cx="183.9" cy="820.2" r="77.08"/>
  <circle class="cls-1" cx="500.93" cy="503.49" r="7.8"/>
  <path class="cls-2" d="M253.7,690.73l156.69-95.68-94.96,156.29s-14.11-26.25-23.85-35.94c-11.43-11.38-37.89-24.67-37.89-24.67Z"/>
</svg>