<svg xmlns="http://www.w3.org/2000/svg" viewBox="0 0 1200 380" width="1200" height="380" role="img" aria-label="JuiceMount hero banner: Supercharge video editing off your NAS. An isometric stack shows an NLE timeline with a moving playhead, an SSD cache warming, NAS drives, and footage streaming up the stack.">
<title>Supercharge video editing off your NAS</title>
<desc>Hero banner for indie filmmakers and small post teams. Left side shows the headline and two buttons: Set it up on your NAS, and Install from GitHub. Right side shows an animated isometric stack: an NLE timeline with a wandering playhead, an SSD cache with cells pulsing green, NAS drives, and green footage blocks rising from the NAS up to the cache.</desc>
<style>
  .ph{animation:playhead 8s ease-in-out infinite;transform-box:fill-box}
  .cache-a{animation:cachePulse 8s ease-in-out infinite}
  .cache-b{animation:cachePulse 8s ease-in-out infinite;animation-delay:-2.6s}
  .cache-c{animation:cachePulse 8s ease-in-out infinite;animation-delay:-5.3s}
  .rise1{animation:rise 6s ease-in-out infinite;transform-box:fill-box}
  .rise2{animation:rise 6s ease-in-out infinite;animation-delay:-2s;transform-box:fill-box}
  .rise3{animation:rise 6s ease-in-out infinite;animation-delay:-4s;transform-box:fill-box}
  .clipA{animation:clipGlow 8s ease-in-out infinite}
  .clipB{animation:clipGlow 8s ease-in-out infinite;animation-delay:-4s}
  @keyframes playhead{0%{transform:translate(0,0)}25%{transform:translate(96px,0)}50%{transform:translate(150px,0)}75%{transform:translate(54px,0)}100%{transform:translate(0,0)}}
  @keyframes cachePulse{0%,100%{opacity:.18}45%{opacity:1}55%{opacity:1}}
  @keyframes clipGlow{0%,100%{opacity:.55}50%{opacity:1}}
  @keyframes rise{0%{transform:translate(0,0);opacity:0}12%{opacity:1}85%{opacity:1}100%{transform:translate(0,-118px);opacity:0}}
  @media (prefers-reduced-motion: reduce){*{animation:none !important}}
</style>

<rect x="0" y="0" width="1200" height="380" rx="22" fill="#17181B"/>
<rect x="0.5" y="0.5" width="1199" height="379" rx="21.5" fill="none" stroke="#34353a" stroke-width="1"/>

<text x="70" y="84" font-family="ui-monospace, 'SF Mono', Menlo, monospace" font-size="14" letter-spacing="0.6" fill="rgba(250,253,232,0.72)">for indie filmmakers and small post teams</text>

<text x="69" y="156" font-family="Inter, -apple-system, 'Segoe UI', Roboto, Helvetica, Arial, sans-serif" font-size="50" font-weight="600" fill="#FAFDE8">Supercharge video</text>
<text x="69" y="210" font-family="Inter, -apple-system, 'Segoe UI', Roboto, Helvetica, Arial, sans-serif" font-size="50" font-weight="600" fill="#FAFDE8">editing off your NAS.</text>

<text x="70" y="250" font-family="Inter, -apple-system, 'Segoe UI', Roboto, Helvetica, Arial, sans-serif" font-size="16" fill="rgba(250,253,232,0.72)">Self-hosted cache that streams footage straight from your drives.</text>

<g>
  <rect x="70" y="284" width="226" height="50" rx="25" fill="#AACD58"/>
  <text x="183" y="314" text-anchor="middle" font-family="Inter, -apple-system, 'Segoe UI', Roboto, Helvetica, Arial, sans-serif" font-size="16" font-weight="600" fill="#17181B">Set it up on your NAS</text>
</g>
<g>
  <rect x="312" y="284" width="216" height="50" rx="25" fill="none" stroke="#3a3b3e" stroke-width="1.5"/>
  <text x="420" y="314" text-anchor="middle" font-family="Inter, -apple-system, 'Segoe UI', Roboto, Helvetica, Arial, sans-serif" font-size="16" font-weight="500" fill="#FAFDE8">Install from GitHub</text>
</g>

<!-- isometric stack: scaled + positioned to fit the right half with margin -->
<g transform="translate(158,52) scale(0.80)">

  <!-- NLE timeline (top floor) -->
  <g transform="translate(700,40) matrix(0.866 -0.28 0.5 0.484 0 0)">
    <rect x="0" y="0" width="290" height="150" rx="6" fill="#0e0f11" stroke="#34353a" stroke-width="1"/>
    <rect class="clipA" x="14" y="16" width="80" height="16" rx="3" fill="#378ADD"/>
    <rect x="100" y="16" width="44" height="16" rx="3" fill="#54565a"/>
    <rect class="clipB" x="150" y="16" width="64" height="16" rx="3" fill="#AACD58"/>
    <rect x="220" y="16" width="54" height="16" rx="3" fill="#54565a"/>
    <rect x="14" y="42" width="58" height="16" rx="3" fill="#54565a"/>
    <rect class="clipB" x="78" y="42" width="92" height="16" rx="3" fill="#378ADD"/>
    <rect x="176" y="42" width="48" height="16" rx="3" fill="#54565a"/>
    <rect class="clipA" x="230" y="42" width="44" height="16" rx="3" fill="#AACD58"/>
    <rect x="14" y="68" width="70" height="16" rx="3" fill="#54565a"/>
    <rect x="90" y="68" width="60" height="16" rx="3" fill="#378ADD"/>
    <rect x="156" y="68" width="50" height="16" rx="3" fill="#54565a"/>
    <rect x="212" y="68" width="62" height="16" rx="3" fill="#54565a"/>
    <g class="ph">
      <rect x="40" y="8" width="3" height="92" fill="#FAFDE8"/>
    </g>
  </g>

  <!-- SSD cache (middle floor) -->
  <g transform="translate(700,200) matrix(0.866 -0.28 0.5 0.484 0 0)">
    <rect x="0" y="0" width="290" height="80" rx="6" fill="#0e0f11" stroke="#34353a" stroke-width="1"/>
    <rect x="18" y="16" width="40" height="22" rx="3" fill="#222418"/>
    <rect class="cache-a" x="18" y="16" width="40" height="22" rx="3" fill="#AACD58"/>
    <rect x="66" y="16" width="40" height="22" rx="3" fill="#222418"/>
    <rect x="114" y="16" width="40" height="22" rx="3" fill="#222418"/>
    <rect class="cache-b" x="114" y="16" width="40" height="22" rx="3" fill="#AACD58"/>
    <rect x="162" y="16" width="40" height="22" rx="3" fill="#222418"/>
    <rect x="210" y="16" width="40" height="22" rx="3" fill="#222418"/>
    <rect x="18" y="44" width="40" height="22" rx="3" fill="#222418"/>
    <rect x="66" y="44" width="40" height="22" rx="3" fill="#222418"/>
    <rect class="cache-c" x="66" y="44" width="40" height="22" rx="3" fill="#AACD58"/>
    <rect x="114" y="44" width="40" height="22" rx="3" fill="#222418"/>
    <rect x="162" y="44" width="40" height="22" rx="3" fill="#222418"/>
    <rect x="210" y="44" width="40" height="22" rx="3" fill="#222418"/>
  </g>

  <!-- footage blocks rising from NAS → cache (straight up) -->
  <g>
    <rect class="rise1" x="852" y="300" width="20" height="12" rx="2" fill="#AACD58"/>
    <rect class="rise2" x="892" y="306" width="20" height="12" rx="2" fill="#AACD58"/>
    <rect class="rise3" x="826" y="298" width="20" height="12" rx="2" fill="#AACD58"/>
  </g>

  <!-- NAS drives (bottom floor) -->
  <g transform="translate(720,320) matrix(0.866 -0.28 0.5 0.484 0 0)">
    <rect x="0" y="0" width="290" height="62" rx="6" fill="#0e0f11" stroke="#34353a" stroke-width="1"/>
    <rect x="18" y="14" width="120" height="34" rx="4" fill="#16171a" stroke="#34353a" stroke-width="1"/>
    <rect x="26" y="26" width="48" height="4" rx="2" fill="#378ADD"/>
    <rect x="26" y="36" width="34" height="4" rx="2" fill="#54565a"/>
    <rect x="152" y="14" width="120" height="34" rx="4" fill="#16171a" stroke="#34353a" stroke-width="1"/>
    <rect x="160" y="26" width="48" height="4" rx="2" fill="#378ADD"/>
    <rect x="160" y="36" width="34" height="4" rx="2" fill="#54565a"/>
  </g>

  <!-- labels (left of each floor) -->
  <text x="690" y="120" text-anchor="end" font-family="ui-monospace, 'SF Mono', Menlo, monospace" font-size="15" letter-spacing="0.4" fill="rgba(250,253,232,0.72)">NLE timeline</text>
  <text x="690" y="270" text-anchor="end" font-family="ui-monospace, 'SF Mono', Menlo, monospace" font-size="15" letter-spacing="0.4" fill="rgba(250,253,232,0.72)">SSD cache</text>
  <text x="712" y="356" text-anchor="end" font-family="ui-monospace, 'SF Mono', Menlo, monospace" font-size="15" letter-spacing="0.4" fill="rgba(250,253,232,0.72)">NAS · drives</text>
</g>
</svg>
